<svg width="56" height="56" viewBox="0 0 56 56" fill="none" xmlns="http://www.w3.org/2000/svg">
<rect width="56" height="56" rx="10" fill="#00B031"/>
<path d="M36.5714 24.3719C36.5714 19.4896 32.4679 15.5408 27.5358 15.8004C23.0678 16.06 19.5334 19.7492 19.4286 24.2171C19.4286 26.4486 20.2573 28.5253 21.715 30.1377C24.0962 32.6887 23.7917 35.644 23.7917 35.644C23.7917 36.2131 24.2609 36.6824 24.83 36.6824H31.165C31.7341 36.6824 32.2034 36.2131 32.2533 35.644C32.2533 35.644 31.9038 32.7636 34.2801 30.1926C35.7378 28.6301 36.5714 26.5534 36.5714 24.3719ZM30.1816 34.6556H25.8185C25.7136 32.524 24.7801 30.4472 23.2725 28.8398C22.1293 27.5918 21.5602 25.9843 21.5602 24.3219C21.6101 20.8924 24.2609 18.0918 27.6905 17.8821C31.4296 17.6725 34.5447 20.6877 34.5447 24.3719C34.5447 25.9843 33.9206 27.5918 32.7775 28.7849C31.2199 30.4472 30.2864 32.524 30.1816 34.6556Z" fill="white"/>
<path d="M29.8172 38.135H26.128C25.5589 38.135 25.0897 38.6043 25.0897 39.1734C25.0897 39.7425 25.5589 40.2117 26.128 40.2117H29.8172C30.3863 40.2117 30.8555 39.7425 30.8555 39.1734C30.8555 38.6043 30.3913 38.135 29.8172 38.135Z" fill="white"/>
<line y1="-1" x2="4.57143" y2="-1" transform="matrix(0.707107 -0.707106 0.707107 0.707106 36.5714 17.4045)" stroke="white" stroke-width="2"/>
<line x1="16.9032" y1="13.465" x2="20.1357" y2="16.6975" stroke="white" stroke-width="2"/>
<line x1="28.1959" y1="14.1721" x2="28.1959" y2="9.60069" stroke="white" stroke-width="2.5"/>
</svg>
