<?xml version="1.0" standalone="no"?>
<!DOCTYPE svg PUBLIC "-//W3C//DTD SVG 20010904//EN"
 "http://www.w3.org/TR/2001/REC-SVG-20010904/DTD/svg10.dtd">
<svg version="1.0" xmlns="http://www.w3.org/2000/svg"
 width="700.000000pt" height="700.000000pt" viewBox="0 0 700.000000 700.000000"
 preserveAspectRatio="xMidYMid meet">
<metadata>
Created by potrace 1.14, written by Peter Selinger 2001-2017
</metadata>
<g transform="translate(0.000000,700.000000) scale(0.100000,-0.100000)"
fill="#000000" stroke="none">
<path d="M1065 6985 c-112 -18 -196 -41 -295 -82 -168 -69 -288 -152 -423
-292 -168 -174 -270 -370 -324 -621 -17 -81 -18 -202 -18 -2490 0 -2288 1
-2409 18 -2490 55 -257 162 -457 340 -638 175 -177 374 -285 637 -348 71 -17
206 -19 2453 -21 2047 -3 2391 -1 2475 11 276 42 503 155 700 349 180 179 293
388 349 647 17 81 18 202 18 2490 0 2291 -1 2409 -18 2490 -57 262 -167 467
-349 647 -197 194 -423 307 -698 348 -133 21 -4739 20 -4865 0z m2615 -1470
l0 -285 -155 0 -155 0 0 285 0 285 155 0 155 0 0 -285z m-1275 -315 l200 -200
-88 -87 -87 -88 -202 202 -203 203 85 85 c46 47 87 85 90 85 3 0 95 -90 205
-200z m2485 115 l85 -85 -203 -203 -202 -202 -87 88 -88 87 200 200 c110 110
202 200 205 200 3 0 44 -38 90 -85z m-1280 -295 c182 -21 352 -85 505 -191 95
-65 229 -205 290 -303 58 -94 110 -216 138 -326 18 -71 21 -113 21 -250 -1
-145 -4 -177 -27 -263 -47 -177 -120 -305 -288 -507 -83 -100 -159 -247 -190
-365 -11 -44 -23 -129 -26 -190 -6 -122 -17 -152 -65 -187 l-33 -23 -436 0
-436 0 -36 28 c-44 33 -55 69 -56 183 -2 146 -66 343 -155 476 -19 29 -66 89
-103 133 -177 210 -267 424 -280 671 -26 490 304 946 782 1079 148 41 257 51
395 35z m179 -2804 c84 -44 88 -161 8 -220 -27 -20 -41 -21 -300 -21 -251 0
-274 1 -300 19 -77 52 -76 171 2 219 22 14 64 17 294 17 215 0 274 -3 296 -14z"/>
<path d="M3440 4763 c-151 -15 -334 -90 -447 -183 -129 -105 -232 -270 -274
-440 -29 -113 -23 -318 11 -425 44 -138 88 -211 218 -365 155 -183 236 -369
277 -642 l6 -38 269 0 269 0 6 38 c20 135 41 218 72 297 60 152 115 236 292
448 226 271 237 675 26 972 -128 181 -341 307 -565 334 -84 11 -93 11 -160 4z"/>
</g>
</svg>
